<svg xmlns="http://www.w3.org/2000/svg" viewBox="0 0 100 100"><defs><style>.cls-1{isolation:isolate;}.cls-2{fill:#b8283d;}.cls-3,.cls-7{fill:#676666;opacity:0.4;}.cls-3,.cls-4{mix-blend-mode:multiply;}.cls-4{fill:#333541;opacity:0.5;}.cls-5{fill:#009874;}.cls-6{fill:#072146;}.cls-8{fill:none;}</style></defs><title>Recurso 15</title><g class="cls-1"><g id="Capa_2" data-name="Capa 2"><g id="Capa_1-2" data-name="Capa 1"><polygon class="cls-2" points="55.65 23.55 53.45 33.08 43.96 33.08 46.16 23.55 55.65 23.55"/><polygon class="cls-3" points="55.04 47.38 57.24 37.85 58.34 33.08 60.54 23.55 55.65 23.55 53.45 33.08 52.35 37.85 50.15 47.38 55.04 47.38"/><polygon class="cls-4" points="44.57 9.25 42.37 18.78 41.27 23.55 39.07 33.08 43.96 33.08 46.16 23.55 47.26 18.78 49.46 9.25 44.57 9.25"/><polygon class="cls-4" points="65.56 33.08 43.96 33.08 42.86 37.85 64.46 37.85 65.56 33.08"/><polygon class="cls-5" points="68.87 18.78 61.64 18.78 63.84 9.25 58.95 9.25 56.75 18.78 55.65 23.55 67.77 23.55 68.87 18.78"/><polygon class="cls-6" points="30.74 37.85 37.97 37.85 35.77 47.38 40.66 47.38 42.86 37.85 43.96 33.08 31.84 33.08 30.74 37.85"/><polygon class="cls-7" points="35.14 18.78 34.04 23.55 55.65 23.55 56.75 18.78 35.14 18.78"/><path class="cls-6" d="M16.84,67.4c.33-.67.67-1.45,1-2.32s.68-1.77,1-2.7.62-1.88.9-2.83.51-1.84.7-2.67H22c-.29,1.12-.6,2.21-.95,3.3s-.72,2.14-1.1,3.17-.79,2-1.21,3-.83,1.86-1.22,2.71H16.08c-.41-.85-.82-1.75-1.23-2.71s-.81-2-1.2-3-.76-2.09-1.11-3.17-.66-2.18-.94-3.3h1.62c.19.83.42,1.72.7,2.67s.57,1.89.9,2.83.66,1.83,1,2.7S16.51,66.73,16.84,67.4Z"/><path class="cls-6" d="M30.16,53.21a1.13,1.13,0,1,1-1.93-.86,1.19,1.19,0,0,1,1.6,0A1.14,1.14,0,0,1,30.16,53.21Zm-.35,15.84H28.28V56.88h1.53Z"/><path class="cls-6" d="M42.06,56.65a8.11,8.11,0,0,1,1.43.12,3.82,3.82,0,0,1,.93.23l-.31,1.32a3.44,3.44,0,0,0-.76-.2A8.78,8.78,0,0,0,41.83,58a7.47,7.47,0,0,0-1.59.14,4.94,4.94,0,0,0-.79.24V69.05H37.92V57.45a10.24,10.24,0,0,1,1.62-.53A10.12,10.12,0,0,1,42.06,56.65Z"/><path class="cls-6" d="M52.46,56.88h4.85v1.3H52.46v6.47a6.42,6.42,0,0,0,.18,1.68,2.29,2.29,0,0,0,.5,1,1.67,1.67,0,0,0,.8.47,4.24,4.24,0,0,0,1,.12,4.47,4.47,0,0,0,1.56-.23,5.56,5.56,0,0,0,.92-.41l.37,1.27a6,6,0,0,1-1.15.49,5.74,5.74,0,0,1-1.79.27A5.22,5.22,0,0,1,53,69a2.73,2.73,0,0,1-1.23-.89,3.67,3.67,0,0,1-.64-1.5,10,10,0,0,1-.19-2.11V53.31L52.46,53Z"/><path class="cls-6" d="M73.07,68.62c-.45.13-1.07.27-1.84.43a15,15,0,0,1-2.82.23,5.66,5.66,0,0,1-2.29-.4,3.68,3.68,0,0,1-1.49-1.13A4.69,4.69,0,0,1,63.82,66a10.08,10.08,0,0,1-.25-2.28V56.88h1.54v6.33a11.37,11.37,0,0,0,.18,2.19,3.52,3.52,0,0,0,.62,1.45,2.43,2.43,0,0,0,1.09.8,4.94,4.94,0,0,0,1.64.24,14.81,14.81,0,0,0,1.89-.11,4.5,4.5,0,0,0,1-.22V56.88h1.53Z"/><path class="cls-6" d="M83.68,56.6a5.29,5.29,0,0,1,2,.34,3.56,3.56,0,0,1,1.36.94,3.7,3.7,0,0,1,.75,1.43,6.33,6.33,0,0,1,.24,1.78v7.67c-.16,0-.39.1-.68.16l-1,.17c-.39.07-.83.12-1.31.16s-1,.06-1.47.06a7.05,7.05,0,0,1-1.78-.22,4,4,0,0,1-1.42-.67,3.11,3.11,0,0,1-.94-1.17,4.06,4.06,0,0,1-.34-1.76,3.57,3.57,0,0,1,.38-1.69,3.1,3.1,0,0,1,1.06-1.16A4.86,4.86,0,0,1,82.14,62a9.49,9.49,0,0,1,2-.21,5.69,5.69,0,0,1,.7,0c.24,0,.48.05.71.09l.59.12a1.49,1.49,0,0,1,.34.11v-.76a7.12,7.12,0,0,0-.1-1.23A2.67,2.67,0,0,0,86,59a2.26,2.26,0,0,0-.89-.78,3.34,3.34,0,0,0-1.52-.3,8.15,8.15,0,0,0-2,.19c-.44.13-.76.23-1,.31l-.22-1.34a5,5,0,0,1,1.24-.35A10.58,10.58,0,0,1,83.68,56.6Zm.14,11.34c.59,0,1.12,0,1.56-.06s.83-.09,1.15-.15V63.45a5.07,5.07,0,0,0-.83-.25,7,7,0,0,0-1.55-.13,9.75,9.75,0,0,0-1.18.08,3.48,3.48,0,0,0-1.13.36,2.25,2.25,0,0,0-.85.74,2.12,2.12,0,0,0-.33,1.24,2.7,2.7,0,0,0,.22,1.16,1.87,1.87,0,0,0,.64.75,2.62,2.62,0,0,0,1,.41A5.75,5.75,0,0,0,83.82,67.94Z"/><path class="cls-6" d="M28.91,73.47a6.81,6.81,0,0,1,2.38.36,3.71,3.71,0,0,1,1.55,1,3.63,3.63,0,0,1,.82,1.54,7.25,7.25,0,0,1,.25,2V85.8c-.44.1-1.1.21-2,.34a19.55,19.55,0,0,1-3,.2,9.08,9.08,0,0,1-2-.21,4.32,4.32,0,0,1-1.57-.68,3.18,3.18,0,0,1-1-1.22,4.14,4.14,0,0,1-.37-1.86,3.64,3.64,0,0,1,.41-1.79,3.45,3.45,0,0,1,1.12-1.19,5.22,5.22,0,0,1,1.64-.66,9.48,9.48,0,0,1,1.95-.2,8.74,8.74,0,0,1,1,.06,10.34,10.34,0,0,1,1.1.2v-.47a4.1,4.1,0,0,0-.11-.94,2,2,0,0,0-.42-.79,1.89,1.89,0,0,0-.77-.53,3.55,3.55,0,0,0-1.22-.19,10.11,10.11,0,0,0-1.81.15,8.45,8.45,0,0,0-1.35.32L25.12,74a11.17,11.17,0,0,1,1.58-.38A12.9,12.9,0,0,1,28.91,73.47Zm.24,10.62a9.94,9.94,0,0,0,2-.15V80.79a5.18,5.18,0,0,0-.68-.14,6.07,6.07,0,0,0-1-.07,6.16,6.16,0,0,0-.95.07,2.92,2.92,0,0,0-.88.26,1.6,1.6,0,0,0-.62.53,1.46,1.46,0,0,0-.24.86,1.52,1.52,0,0,0,.64,1.4A3.27,3.27,0,0,0,29.15,84.09Z"/><path class="cls-6" d="M46.86,84.84a5.54,5.54,0,0,1-1.5,4.3,6.62,6.62,0,0,1-4.58,1.37,12.36,12.36,0,0,1-2.21-.19,13.38,13.38,0,0,1-1.94-.49l.52-2.43a8.79,8.79,0,0,0,1.66.5,10.58,10.58,0,0,0,2,.19,3.48,3.48,0,0,0,2.45-.71A2.81,2.81,0,0,0,44,85.29v-.48a6.78,6.78,0,0,1-1.12.43,5.57,5.57,0,0,1-1.59.21,6,6,0,0,1-2.16-.38A4.55,4.55,0,0,1,37.47,84a5,5,0,0,1-1.09-1.83A7.45,7.45,0,0,1,36,79.62a7.09,7.09,0,0,1,.42-2.48,5.13,5.13,0,0,1,1.2-1.92A5.33,5.33,0,0,1,39.53,74a6.89,6.89,0,0,1,2.57-.45,16,16,0,0,1,2.64.21c.83.14,1.54.29,2.12.45Zm-7.94-5.22a3.72,3.72,0,0,0,.79,2.64,2.65,2.65,0,0,0,2,.84A4.47,4.47,0,0,0,43,82.91a3.91,3.91,0,0,0,1-.45V76.09c-.21,0-.46-.09-.76-.13a8.73,8.73,0,0,0-1.13-.06,2.88,2.88,0,0,0-2.38,1A4.16,4.16,0,0,0,38.92,79.62Z"/><path class="cls-6" d="M60.91,79.92a8,8,0,0,1-.42,2.66,5.87,5.87,0,0,1-1.2,2,5.44,5.44,0,0,1-1.88,1.31,6.41,6.41,0,0,1-4.82,0,5.46,5.46,0,0,1-1.86-1.31,6.05,6.05,0,0,1-1.21-2,8.23,8.23,0,0,1,0-5.31,6,6,0,0,1,1.22-2,5.5,5.5,0,0,1,1.88-1.31A6.12,6.12,0,0,1,55,73.47a6.24,6.24,0,0,1,2.39.46,5.19,5.19,0,0,1,1.87,1.31,6,6,0,0,1,1.22,2A7.71,7.71,0,0,1,60.91,79.92Zm-2.92,0A4.75,4.75,0,0,0,57.2,77a2.79,2.79,0,0,0-4.41,0,4.82,4.82,0,0,0-.78,2.9,4.93,4.93,0,0,0,.78,2.94,2.79,2.79,0,0,0,4.41,0A4.86,4.86,0,0,0,58,79.92Z"/><path class="cls-6" d="M75.25,79.92a7.77,7.77,0,0,1-.43,2.66,5.87,5.87,0,0,1-1.2,2,5.4,5.4,0,0,1-1.87,1.31,6,6,0,0,1-2.42.47,5.84,5.84,0,0,1-2.4-.47,5.27,5.27,0,0,1-1.86-1.31,6.07,6.07,0,0,1-1.22-2,8.41,8.41,0,0,1,0-5.31,5.85,5.85,0,0,1,1.23-2A5.36,5.36,0,0,1,67,73.93a6.16,6.16,0,0,1,2.38-.46,6.24,6.24,0,0,1,2.39.46,5.31,5.31,0,0,1,1.88,1.31,6,6,0,0,1,1.21,2A7.71,7.71,0,0,1,75.25,79.92Zm-2.93,0a4.75,4.75,0,0,0-.79-2.9,2.78,2.78,0,0,0-4.4,0,4.75,4.75,0,0,0-.79,2.9,4.86,4.86,0,0,0,.79,2.94,2.78,2.78,0,0,0,4.4,0A4.86,4.86,0,0,0,72.32,79.92Z"/><path class="cls-6" d="M77.71,74.18a18.25,18.25,0,0,1,2.15-.45,18.63,18.63,0,0,1,2.92-.21,6.85,6.85,0,0,1,2.52.41,4,4,0,0,1,1.61,1.16,4.34,4.34,0,0,1,.85,1.78,9.77,9.77,0,0,1,.25,2.3v6.92H85.16V79.62A10.1,10.1,0,0,0,85,77.93a3,3,0,0,0-.43-1.13,1.62,1.62,0,0,0-.8-.63,3.41,3.41,0,0,0-1.23-.2,9.05,9.05,0,0,0-1.14.07l-.87.12v9.93H77.71Z"/><polygon class="cls-6" points="14.86 72.48 14.86 83.52 22.21 83.52 22.21 86.08 11.89 86.08 11.89 72.48 14.86 72.48"/><path class="cls-6" d="M16.84,67.4c.33-.67.67-1.45,1-2.32s.68-1.77,1-2.7.62-1.88.9-2.83.51-1.84.7-2.67H22c-.29,1.12-.6,2.21-.95,3.3s-.72,2.14-1.1,3.17-.79,2-1.21,3-.83,1.86-1.22,2.71H16.08c-.41-.85-.82-1.75-1.23-2.71s-.81-2-1.2-3-.76-2.09-1.11-3.17-.66-2.18-.94-3.3h1.62c.19.83.42,1.72.7,2.67s.57,1.89.9,2.83.66,1.83,1,2.7S16.51,66.73,16.84,67.4Z"/><path class="cls-6" d="M30.16,53.21a1.13,1.13,0,1,1-1.93-.86,1.19,1.19,0,0,1,1.6,0A1.14,1.14,0,0,1,30.16,53.21Zm-.35,15.84H28.28V56.88h1.53Z"/><path class="cls-6" d="M42.06,56.65a8.11,8.11,0,0,1,1.43.12,3.82,3.82,0,0,1,.93.23l-.31,1.32a3.44,3.44,0,0,0-.76-.2A8.78,8.78,0,0,0,41.83,58a7.47,7.47,0,0,0-1.59.14,4.94,4.94,0,0,0-.79.24V69.05H37.92V57.45a10.24,10.24,0,0,1,1.62-.53A10.12,10.12,0,0,1,42.06,56.65Z"/><path class="cls-6" d="M52.46,56.88h4.85v1.3H52.46v6.47a6.42,6.42,0,0,0,.18,1.68,2.29,2.29,0,0,0,.5,1,1.67,1.67,0,0,0,.8.47,4.24,4.24,0,0,0,1,.12,4.47,4.47,0,0,0,1.56-.23,5.56,5.56,0,0,0,.92-.41l.37,1.27a6,6,0,0,1-1.15.49,5.74,5.74,0,0,1-1.79.27A5.22,5.22,0,0,1,53,69a2.73,2.73,0,0,1-1.23-.89,3.67,3.67,0,0,1-.64-1.5,10,10,0,0,1-.19-2.11V53.31L52.46,53Z"/><path class="cls-6" d="M73.07,68.62c-.45.13-1.07.27-1.84.43a15,15,0,0,1-2.82.23,5.66,5.66,0,0,1-2.29-.4,3.68,3.68,0,0,1-1.49-1.13A4.69,4.69,0,0,1,63.82,66a10.08,10.08,0,0,1-.25-2.28V56.88h1.54v6.33a11.37,11.37,0,0,0,.18,2.19,3.52,3.52,0,0,0,.62,1.45,2.43,2.43,0,0,0,1.09.8,4.94,4.94,0,0,0,1.64.24,14.81,14.81,0,0,0,1.89-.11,4.5,4.5,0,0,0,1-.22V56.88h1.53Z"/><path class="cls-6" d="M83.68,56.6a5.29,5.29,0,0,1,2,.34,3.56,3.56,0,0,1,1.36.94,3.7,3.7,0,0,1,.75,1.43,6.33,6.33,0,0,1,.24,1.78v7.67c-.16,0-.39.1-.68.16l-1,.17c-.39.07-.83.12-1.31.16s-1,.06-1.47.06a7.05,7.05,0,0,1-1.78-.22,4,4,0,0,1-1.42-.67,3.11,3.11,0,0,1-.94-1.17,4.06,4.06,0,0,1-.34-1.76,3.57,3.57,0,0,1,.38-1.69,3.1,3.1,0,0,1,1.06-1.16A4.86,4.86,0,0,1,82.14,62a9.49,9.49,0,0,1,2-.21,5.69,5.69,0,0,1,.7,0c.24,0,.48.05.71.09l.59.12a1.49,1.49,0,0,1,.34.11v-.76a7.12,7.12,0,0,0-.1-1.23A2.67,2.67,0,0,0,86,59a2.26,2.26,0,0,0-.89-.78,3.34,3.34,0,0,0-1.52-.3,8.15,8.15,0,0,0-2,.19c-.44.13-.76.23-1,.31l-.22-1.34a5,5,0,0,1,1.24-.35A10.58,10.58,0,0,1,83.68,56.6Zm.14,11.34c.59,0,1.12,0,1.56-.06s.83-.09,1.15-.15V63.45a5.07,5.07,0,0,0-.83-.25,7,7,0,0,0-1.55-.13,9.75,9.75,0,0,0-1.18.08,3.48,3.48,0,0,0-1.13.36,2.25,2.25,0,0,0-.85.74,2.12,2.12,0,0,0-.33,1.24,2.7,2.7,0,0,0,.22,1.16,1.87,1.87,0,0,0,.64.75,2.62,2.62,0,0,0,1,.41A5.75,5.75,0,0,0,83.82,67.94Z"/><path class="cls-6" d="M28.91,73.47a6.81,6.81,0,0,1,2.38.36,3.71,3.71,0,0,1,1.55,1,3.63,3.63,0,0,1,.82,1.54,7.25,7.25,0,0,1,.25,2V85.8c-.44.1-1.1.21-2,.34a19.55,19.55,0,0,1-3,.2,9.08,9.08,0,0,1-2-.21,4.32,4.32,0,0,1-1.57-.68,3.18,3.18,0,0,1-1-1.22,4.14,4.14,0,0,1-.37-1.86,3.64,3.64,0,0,1,.41-1.79,3.45,3.45,0,0,1,1.12-1.19,5.22,5.22,0,0,1,1.64-.66,9.48,9.48,0,0,1,1.95-.2,8.74,8.74,0,0,1,1,.06,10.34,10.34,0,0,1,1.1.2v-.47a4.1,4.1,0,0,0-.11-.94,2,2,0,0,0-.42-.79,1.89,1.89,0,0,0-.77-.53,3.55,3.55,0,0,0-1.22-.19,10.11,10.11,0,0,0-1.81.15,8.45,8.45,0,0,0-1.35.32L25.12,74a11.17,11.17,0,0,1,1.58-.38A12.9,12.9,0,0,1,28.91,73.47Zm.24,10.62a9.94,9.94,0,0,0,2-.15V80.79a5.18,5.18,0,0,0-.68-.14,6.07,6.07,0,0,0-1-.07,6.16,6.16,0,0,0-.95.07,2.92,2.92,0,0,0-.88.26,1.6,1.6,0,0,0-.62.53,1.46,1.46,0,0,0-.24.86,1.52,1.52,0,0,0,.64,1.4A3.27,3.27,0,0,0,29.15,84.09Z"/><path class="cls-6" d="M46.86,84.84a5.54,5.54,0,0,1-1.5,4.3,6.62,6.62,0,0,1-4.58,1.37,12.36,12.36,0,0,1-2.21-.19,13.38,13.38,0,0,1-1.94-.49l.52-2.43a8.79,8.79,0,0,0,1.66.5,10.58,10.58,0,0,0,2,.19,3.48,3.48,0,0,0,2.45-.71A2.81,2.81,0,0,0,44,85.29v-.48a6.78,6.78,0,0,1-1.12.43,5.57,5.57,0,0,1-1.59.21,6,6,0,0,1-2.16-.38A4.55,4.55,0,0,1,37.47,84a5,5,0,0,1-1.09-1.83A7.45,7.45,0,0,1,36,79.62a7.09,7.09,0,0,1,.42-2.48,5.13,5.13,0,0,1,1.2-1.92A5.33,5.33,0,0,1,39.53,74a6.89,6.89,0,0,1,2.57-.45,16,16,0,0,1,2.64.21c.83.14,1.54.29,2.12.45Zm-7.94-5.22a3.72,3.72,0,0,0,.79,2.64,2.65,2.65,0,0,0,2,.84A4.47,4.47,0,0,0,43,82.91a3.91,3.91,0,0,0,1-.45V76.09c-.21,0-.46-.09-.76-.13a8.73,8.73,0,0,0-1.13-.06,2.88,2.88,0,0,0-2.38,1A4.16,4.16,0,0,0,38.92,79.62Z"/><path class="cls-6" d="M60.91,79.92a8,8,0,0,1-.42,2.66,5.87,5.87,0,0,1-1.2,2,5.44,5.44,0,0,1-1.88,1.31,6.41,6.41,0,0,1-4.82,0,5.46,5.46,0,0,1-1.86-1.31,6.05,6.05,0,0,1-1.21-2,8.23,8.23,0,0,1,0-5.31,6,6,0,0,1,1.22-2,5.5,5.5,0,0,1,1.88-1.31A6.12,6.12,0,0,1,55,73.47a6.24,6.24,0,0,1,2.39.46,5.19,5.19,0,0,1,1.87,1.31,6,6,0,0,1,1.22,2A7.71,7.71,0,0,1,60.91,79.92Zm-2.92,0A4.75,4.75,0,0,0,57.2,77a2.79,2.79,0,0,0-4.41,0,4.82,4.82,0,0,0-.78,2.9,4.93,4.93,0,0,0,.78,2.94,2.79,2.79,0,0,0,4.41,0A4.86,4.86,0,0,0,58,79.92Z"/><path class="cls-6" d="M75.25,79.92a7.77,7.77,0,0,1-.43,2.66,5.87,5.87,0,0,1-1.2,2,5.4,5.4,0,0,1-1.87,1.31,6,6,0,0,1-2.42.47,5.84,5.84,0,0,1-2.4-.47,5.27,5.27,0,0,1-1.86-1.31,6.07,6.07,0,0,1-1.22-2,8.41,8.41,0,0,1,0-5.31,5.85,5.85,0,0,1,1.23-2A5.36,5.36,0,0,1,67,73.93a6.16,6.16,0,0,1,2.38-.46,6.24,6.24,0,0,1,2.39.46,5.31,5.31,0,0,1,1.88,1.31,6,6,0,0,1,1.21,2A7.71,7.71,0,0,1,75.25,79.92Zm-2.93,0a4.75,4.75,0,0,0-.79-2.9,2.78,2.78,0,0,0-4.4,0,4.75,4.75,0,0,0-.79,2.9,4.86,4.86,0,0,0,.79,2.94,2.78,2.78,0,0,0,4.4,0A4.86,4.86,0,0,0,72.32,79.92Z"/><path class="cls-6" d="M77.71,74.18a18.25,18.25,0,0,1,2.15-.45,18.63,18.63,0,0,1,2.92-.21,6.85,6.85,0,0,1,2.52.41,4,4,0,0,1,1.61,1.16,4.34,4.34,0,0,1,.85,1.78,9.77,9.77,0,0,1,.25,2.3v6.92H85.16V79.62A10.1,10.1,0,0,0,85,77.93a3,3,0,0,0-.43-1.13,1.62,1.62,0,0,0-.8-.63,3.41,3.41,0,0,0-1.23-.2,9.05,9.05,0,0,0-1.14.07l-.87.12v9.93H77.71Z"/><polygon class="cls-6" points="14.86 72.48 14.86 83.52 22.21 83.52 22.21 86.08 11.89 86.08 11.89 72.48 14.86 72.48"/><rect class="cls-8" width="100" height="100"/></g></g></g></svg>